<?xml version="1.0" encoding="UTF-8" standalone="no"?>
<!-- Created with Inkscape (http://www.inkscape.org/) -->

<svg
   width="256mm"
   height="256mm"
   viewBox="0 0 256 256"
   version="1.1"
   id="svg5"
   inkscape:version="1.2.1 (9c6d41e410, 2022-07-14)"
   sodipodi:docname="matboard_NEW_icon.svg"
   xmlns:inkscape="http://www.inkscape.org/namespaces/inkscape"
   xmlns:sodipodi="http://sodipodi.sourceforge.net/DTD/sodipodi-0.dtd"
   xmlns="http://www.w3.org/2000/svg"
   xmlns:svg="http://www.w3.org/2000/svg">
  <sodipodi:namedview
     id="namedview7"
     pagecolor="#ffffff"
     bordercolor="#000000"
     borderopacity="0.25"
     inkscape:showpageshadow="2"
     inkscape:pageopacity="0.0"
     inkscape:pagecheckerboard="0"
     inkscape:deskcolor="#d1d1d1"
     inkscape:document-units="mm"
     showgrid="false"
     inkscape:zoom="0.13008017"
     inkscape:cx="30.750267"
     inkscape:cy="707.25615"
     inkscape:window-width="1034"
     inkscape:window-height="1004"
     inkscape:window-x="181"
     inkscape:window-y="88"
     inkscape:window-maximized="0"
     inkscape:current-layer="layer1" />
  <defs
     id="defs2" />
  <g
     inkscape:label="Layer 1"
     inkscape:groupmode="layer"
     id="layer1">
    <g
       fill="#040404"
       id="g136"
       transform="matrix(8.0050048,0,0,8.0050031,-343.59187,0.04003)">
      <path
         d="M 74.098,31.247 V 0.727 h -2.194 v -0.732 h 3.035 v 31.98 h -3.035 v -0.732 z"
         id="path400" />
    </g>
    <path
       d="M 6.73207,5.82765 V 250.14034 H 24.29518 V 256 H 0 V 0 h 24.287 v 5.85966 z"
       id="path435"
       style="stroke-width:8.00499" />
    <g
       aria-label="mb"
       id="text3494"
       style="font-weight:bold;font-size:180.622px;font-family:Arial;-inkscape-font-specification:'Arial Bold';stroke:#ffffff;stroke-width:0"
       transform="matrix(0.82533274,0,0,0.82533274,185.83758,-1.3614859)">
      <path
         id="path3496"
         d="m -57.696035,84.310399 v 33.895091 c -1.920597,-0.26854 -3.941191,-0.40359 -6.063196,-0.40359 -5.409247,0 -10.494978,1.23472 -15.257466,3.70416 -4.762489,2.46944 -9.201802,6.20319 -13.317534,11.20087 -2.822215,-4.99768 -6.438207,-8.73143 -10.847919,-11.20087 -4.40971,-2.46944 -9.61321,-3.70416 -15.61041,-3.70416 -11.28887,0 -21.01936,4.96848 -29.19202,14.90503 v -12.78837 h -22.84253 v 93.6625 h 24.78298 v -45.50833 c 0,-8.99581 0.64641,-15.43404 1.93993,-19.31458 1.35231,-3.88055 3.55719,-6.84961 6.61459,-8.90747 3.0574,-2.05787 6.497,-3.08663 10.31875,-3.08663 3.17499,0 5.67401,0.64641 7.4967,1.93993 1.88147,1.29351 3.26302,3.26337 4.14496,5.9092 0.88194,2.64582 1.32292,8.52531 1.32292,17.63872 v 51.32916 h 24.782466 V 168.6019 c 0,-8.81943 0.676505,-15.25765 2.028817,-19.31459 1.352312,-4.11573 3.557183,-7.23161 6.614583,-9.34826 3.0574,-2.11667 6.32061,-3.175 9.789584,-3.175 4.762489,0 8.290282,1.76389 10.583333,5.29166 1.705088,2.70463 2.557466,8.70187 2.557466,17.99167 v 53.53368 h 0.153996 v 0.0222 h 23.01875 v -0.0222 h 1.609721 V 201.9487 c 3.409213,4.20402 7.339986,7.4734 11.795663,9.8025 5.232859,2.64583 10.524546,3.96875 15.8749996,3.96875 10.8772927,0 20.1086994,-4.32155 27.6934004,-12.96458 7.643499,-8.64304 11.464933,-20.96075 11.464933,-36.9533 0,-15.4634 -3.733239,-27.31107 -11.20035,-35.54254 -7.467108,-8.29026 -16.9039585,-12.43541 -28.3104167,-12.43541 -10.4657213,0 -19.5207313,4.35111 -27.1642333,13.05295 V 84.310399 Z m 45.332117,52.475351 c 6.0560079,0 11.0239671,2.38126 14.9045166,7.14375 3.8805467,4.70369 5.8208333,12.40621 5.8208333,23.10712 0,10.05414 -1.9402866,17.43293 -5.8208333,22.13663 -3.8217529,4.64489 -8.4665035,6.96753 -13.9345496,6.96753 -7.114338,0 -12.817431,-3.29277 -17.10955,-9.87795 -2.851588,-4.33222 -4.372105,-10.8659 -4.564063,-19.59673 v -3.58118 c 0.221234,-8.57475 2.182924,-15.01945 5.886979,-19.33164 3.939343,-4.64489 8.878253,-6.96753 14.816667,-6.96753 z" />
    </g>
  </g>
</svg>
