<?xml version="1.0" encoding="UTF-8" standalone="no"?>
<!-- Created with Inkscape (http://www.inkscape.org/) -->

<svg
   width="700mm"
   height="256mm"
   viewBox="0 0 700 256"
   version="1.1"
   id="svg5"
   inkscape:version="1.2.1 (9c6d41e410, 2022-07-14)"
   sodipodi:docname="matboard_NEW_logo.svg"
   xmlns:inkscape="http://www.inkscape.org/namespaces/inkscape"
   xmlns:sodipodi="http://sodipodi.sourceforge.net/DTD/sodipodi-0.dtd"
   xmlns="http://www.w3.org/2000/svg"
   xmlns:svg="http://www.w3.org/2000/svg">
  <sodipodi:namedview
     id="namedview7"
     pagecolor="#ffffff"
     bordercolor="#000000"
     borderopacity="0.25"
     inkscape:showpageshadow="2"
     inkscape:pageopacity="0.0"
     inkscape:pagecheckerboard="0"
     inkscape:deskcolor="#d1d1d1"
     inkscape:document-units="mm"
     showgrid="false"
     inkscape:zoom="0.13008017"
     inkscape:cx="1230.0107"
     inkscape:cy="-349.78429"
     inkscape:window-width="1920"
     inkscape:window-height="1009"
     inkscape:window-x="-4"
     inkscape:window-y="-4"
     inkscape:window-maximized="1"
     inkscape:current-layer="layer1" />
  <defs
     id="defs2" />
  <g
     inkscape:label="Layer 1"
     inkscape:groupmode="layer"
     id="layer1">
    <g
       aria-label="matboard"
       id="text562"
       style="font-weight:bold;font-size:135.069px;font-family:Arial;-inkscape-font-specification:'Arial Bold';opacity:1;stroke:#ffffff;stroke-width:0"
       transform="translate(-3.2564366,0.52916667)">
      <path
         d="m 55.991485,95.557542 h 17.08148 v 9.562988 q 9.167281,-11.145827 21.83,-11.145827 6.727065,0 11.673445,2.769969 4.94637,2.76997 8.11205,8.375858 4.61662,-5.605888 9.9587,-8.375858 5.34209,-2.769969 11.40964,-2.769969 7.71634,0 13.05843,3.165679 5.34208,3.099728 7.98015,9.167278 1.9126,4.48472 1.9126,14.50937 v 44.78118 h -18.53242 v -40.03266 q 0,-10.42036 -1.9126,-13.45414 -2.57211,-3.9571 -7.9142,-3.9571 -3.89114,0 -7.32063,2.37426 -3.42949,2.37426 -4.94637,6.99088 -1.51689,4.55066 -1.51689,14.44341 v 33.63535 H 98.332451 v -38.38387 q 0,-10.22251 -0.989275,-13.19033 -0.989275,-2.96783 -3.099728,-4.41876 -2.044502,-1.45094 -5.605891,-1.45094 -4.286858,0 -7.716344,2.30831 -3.429487,2.30831 -4.946375,6.66112 -1.450936,4.3528 -1.450936,14.44341 v 34.03106 H 55.991485 Z"
         id="path896" />
      <path
         d="m 191.3243,116.926 h -16.81768 c 1.89061,-6.77103 5.14423,-14.81726 9.76085,-18.070875 4.61661,-3.253615 11.47559,-4.880422 20.57692,-4.880422 8.26594,0 14.42143,0.989275 18.46646,2.967824 4.04503,1.934582 6.88095,4.418763 8.50776,7.452533 1.67078,2.98981 2.50617,8.50777 2.50617,16.55387 l -0.19786,21.63215 c 0,6.15549 0.28579,10.70615 0.85737,13.65199 0.61555,2.90187 1.73673,6.02359 3.36354,9.36514 h -18.33456 c -0.48365,-1.2311 -1.07721,-3.05576 -1.7807,-5.47399 -0.30777,-1.09919 -0.52761,-1.82466 -0.65951,-2.17641 -3.16568,3.07775 -6.5512,5.38606 -10.15656,6.92493 -3.60536,1.53887 -7.45254,2.30831 -11.54154,2.30831 -7.21071,0 -12.90454,-1.95657 -17.08148,-5.8697 -4.13297,-3.91313 -6.19946,-8.85951 -6.19946,-14.83913 0,-3.9571 0.94531,-7.47452 2.83593,-10.55226 1.89061,-3.12171 4.52868,-5.49597 7.91419,-7.12278 3.42949,-1.67077 8.35388,-3.12171 14.77318,-4.35281 8.66165,-1.62681 14.66325,-3.1437 18.0048,-4.55067 v -1.84664 c 0,-3.56139 -0.87936,-6.08954 -2.63807,-7.58444 -1.75871,-1.53887 -5.07827,-2.30831 -9.9587,-2.30831 -3.29758,0 -5.86969,0.65952 -7.71634,1.97855 -1.84665,1.27507 -3.34155,3.53953 -4.48471,6.79314 z m 24.79782,15.03686 c -2.37426,0.79142 -6.1335,1.73673 -11.27773,2.83592 -5.14423,1.09919 -8.50777,2.1764 -10.09061,3.23163 -2.41823,1.71475 -3.62734,3.89115 -3.62734,6.52922 0,2.59409 0.96729,4.83645 2.90187,6.72707 1.93459,1.89061 4.39678,2.83592 7.38659,2.83592 3.34155,0 6.52922,-1.0992 9.56299,-3.29759 2.24235,-1.67077 3.71527,-3.71527 4.41876,-6.1335 0.48365,-1.58284 0.72547,-4.59463 0.72547,-9.03538 z"
         id="path898"
         sodipodi:nodetypes="ccsscccccccccsscsccccscscccscsssccsc" />
      <path
         d="m 284.71185,95.557542 v 14.773168 h -12.66272 v 28.22731 c 0,5.71581 0.10992,9.05737 0.32976,10.02466 0.26381,0.92332 0.8134,1.69276 1.64879,2.30831 0.87935,0.61555 1.93458,0.92332 3.16568,0.92332 1.71474,0 4.19892,-0.59357 7.45254,-1.7807 l 1.58284,14.37747 c -4.30885,1.84665 -9.18927,2.76997 -14.64127,2.76997 -3.34155,0 -6.35335,-0.5496 -9.03538,-1.6488 -2.68203,-1.14316 -4.66058,-2.5941 -5.93565,-4.35281 -1.2311,-1.80267 -2.08847,-4.2209 -2.57211,-7.25468 -0.39571,-2.15442 -0.59357,-6.50723 -0.59357,-13.05843 V 110.33071 H 244.943 V 95.557542 h 8.50776 V 70.826 h 18.59837 v 24.731542 z"
         id="path900"
         sodipodi:nodetypes="cccsccsccscccscccccccc" />
      <path
         d="M 296.781,165.59821 V 68.913072 h 18.53242 v 34.822478 q 8.57372,-9.760847 20.31311,-9.760847 12.79462,0 21.17048,9.299187 8.37586,9.23323 8.37586,26.57852 0,17.93885 -8.57371,27.63374 -8.50777,9.6949 -20.70882,9.6949 -6.0016,0 -11.8713,-2.96783 -5.80375,-3.03378 -10.02465,-8.90347 v 10.28846 z m 18.40052,-36.53722 q 0,10.88202 3.42948,16.0922 4.81447,7.38659 12.79462,7.38659 6.13351,0 10.42037,-5.21018 4.35281,-5.27614 4.35281,-16.55387 0,-12.0032 -4.35281,-17.27934 -4.35281,-5.34208 -11.14583,-5.34208 -6.66112,0 -11.07988,5.21018 -4.41876,5.14423 -4.41876,15.6965 z"
         id="path902" />
      <path
         d="m 375.79109,129.5886 q 0,-9.23323 4.55066,-17.8729 4.55067,-8.63967 12.86058,-13.190333 8.37586,-4.550664 18.66432,-4.550664 15.89435,0 26.0509,10.354407 10.15656,10.28846 10.15656,26.05091 0,15.89435 -10.28846,26.38066 -10.22251,10.42037 -25.7871,10.42037 -9.62894,0 -18.40051,-4.35281 -8.70562,-4.35281 -13.25629,-12.72867 -4.55066,-8.44182 -4.55066,-20.51097 z m 18.99408,0.98927 q 0,10.42037 4.94637,15.96031 4.94638,5.53994 12.20106,5.53994 7.25468,0 12.1351,-5.53994 4.94638,-5.53994 4.94638,-16.09221 0,-10.28846 -4.94638,-15.8284 -4.88042,-5.53994 -12.1351,-5.53994 -7.25468,0 -12.20106,5.53994 -4.94637,5.53994 -4.94637,15.9603 z"
         id="path904" />
      <path
         d="m 476.43332,116.92588 -16.81767,1.2e-4 c 1.89061,-6.77103 5.14423,-14.81726 9.76084,-18.070875 4.61662,-3.253615 11.47559,-4.880422 20.57692,-4.880422 8.26594,0 14.42143,0.989275 18.46646,2.967824 4.04504,1.934582 6.88096,4.418763 8.50777,7.452533 1.67077,2.98981 2.50616,8.50777 2.50616,16.55387 l -0.19785,21.63215 c 0,6.15549 0.28579,10.70615 0.85737,13.65199 0.61555,2.90187 1.73672,6.02359 3.36353,9.36514 h -18.33456 c -0.48365,-1.2311 -1.07721,-3.05576 -1.78069,-5.47399 -0.30778,-1.09919 -0.52762,-1.82466 -0.65952,-2.17641 -3.16568,3.07775 -6.5512,5.38606 -10.15656,6.92493 -3.60535,1.53887 -7.45253,2.30831 -11.54154,2.30831 -7.21071,0 -12.90454,-1.95657 -17.08148,-5.8697 -4.13297,-3.91313 -6.19945,-8.85951 -6.19945,-14.83913 0,-3.9571 0.94531,-7.47452 2.83592,-10.55226 1.89061,-3.12171 4.52868,-5.49597 7.9142,-7.12278 3.42949,-1.67077 8.35388,-3.12171 14.77317,-4.35281 8.66165,-1.62681 14.66325,-3.1437 18.0048,-4.55067 v -1.84664 c 0,-3.56139 -0.87935,-6.08954 -2.63806,-7.58444 -1.75871,-1.53887 -5.07828,-2.30831 -9.9587,-2.30831 -3.29759,0 -5.8697,0.65952 -7.71635,1.97855 -1.84665,1.27507 -3.34155,3.53941 -4.48471,6.79302 z m 24.79782,15.03698 c -2.37426,0.79142 -6.1335,1.73673 -11.27773,2.83592 -5.14423,1.09919 -8.50776,2.1764 -10.0906,3.23163 -2.41823,1.71475 -3.62735,3.89115 -3.62735,6.52922 0,2.59409 0.96729,4.83645 2.90188,6.72707 1.93458,1.89061 4.39677,2.83592 7.38658,2.83592 3.34155,0 6.52922,-1.0992 9.56299,-3.29759 2.24236,-1.67077 3.71528,-3.71527 4.41877,-6.1335 0.48364,-1.58284 0.72546,-4.59463 0.72546,-9.03538 z"
         id="path906"
         sodipodi:nodetypes="ccsscccccccccsscsccccscscccscsssccsc" />
      <path
         d="M 555.44339,165.59821 H 536.91098 V 95.557542 h 17.21338 v 9.958698 q 4.41876,-7.056825 7.9142,-9.299181 3.56139,-2.242356 8.0461,-2.242356 6.33136,0 12.20106,3.495438 l -5.73779,16.158159 q -4.68257,-3.03378 -8.70562,-3.03378 -3.89115,0 -6.59517,2.17641 -2.70402,2.11045 -4.28686,7.71634 -1.51689,5.60589 -1.51689,23.47879 z"
         id="path908" />
      <path
         d="m 654.50279,165.59821 h -17.21338 v -10.28846 q -4.28686,6.0016 -10.15656,8.96942 -5.80374,2.90188 -11.73939,2.90188 -12.06916,0 -20.70882,-9.6949 -8.57372,-9.76084 -8.57372,-27.17208 0,-17.80695 8.37586,-27.04018 8.37586,-9.299187 21.17048,-9.299187 11.7394,0 20.31311,9.760847 V 68.913072 h 18.53242 z m -49.46374,-36.53722 q 0,11.21178 3.09972,16.2241 4.48472,7.25469 12.53082,7.25469 6.39731,0 10.88202,-5.40804 4.48472,-5.47399 4.48472,-16.29006 0,-12.06915 -4.35281,-17.34529 -4.35281,-5.34208 -11.14583,-5.34208 -6.59517,0 -11.07988,5.27613 -4.41876,5.21018 -4.41876,15.63055 z"
         id="path910" />
    </g>
    <g
       fill="#040404"
       id="g136"
       transform="matrix(8.0050048,0,0,8.0050031,100.10584,0.04002501)">
      <path
         d="M 74.098,31.247 V 0.727 h -2.194 v -0.732 h 3.035 v 31.98 h -3.035 v -0.732 z"
         id="path400" />
    </g>
    <path
       d="M 6.7320665,5.8276543 V 250.14034 H 24.295176 V 256 H 0 V 0 h 24.287002 v 5.8596647 z"
       id="path435"
       style="stroke-width:8.00499" />
  </g>
</svg>
